<svg xmlns="http://www.w3.org/2000/svg" viewBox="0 0 96 96" role="img" aria-labelledby="title desc">
  <title id="title">Deduplarr</title>
  <desc id="desc">A layered duplicate-file mark with a scan accent.</desc>
  <defs>
    <linearGradient id="panel" x1="18" y1="14" x2="78" y2="84" gradientUnits="userSpaceOnUse">
      <stop offset="0" stop-color="#4ebbe9"/>
      <stop offset="1" stop-color="#277da6"/>
    </linearGradient>
    <linearGradient id="page" x1="28" y1="20" x2="70" y2="72" gradientUnits="userSpaceOnUse">
      <stop offset="0" stop-color="#f7fbff"/>
      <stop offset="1" stop-color="#bfe7f7"/>
    </linearGradient>
  </defs>
  <rect width="96" height="96" rx="18" fill="#111315"/>
  <path d="M25 18h36l14 14v44a8 8 0 0 1-8 8H25a8 8 0 0 1-8-8V26a8 8 0 0 1 8-8Z" fill="url(#panel)"/>
  <path d="M35 12h26l20 20v34a8 8 0 0 1-8 8H35a8 8 0 0 1-8-8V20a8 8 0 0 1 8-8Z" fill="#1d2024" stroke="#4ebbe9" stroke-width="4"/>
  <path d="M61 12v16a4 4 0 0 0 4 4h16" fill="none" stroke="#4ebbe9" stroke-width="4" stroke-linejoin="round"/>
  <path d="M41 29h12c11 0 19 8 19 18s-8 18-19 18H41V29Z" fill="url(#page)"/>
  <path d="M49 39v16h5c5 0 9-3 9-8s-4-8-9-8h-5Z" fill="#1d2024"/>
  <path d="M19 61c6 10 16 16 29 16 14 0 25-7 31-19" fill="none" stroke="#55b37a" stroke-width="5" stroke-linecap="round"/>
  <path d="M28 58h-9v9" fill="none" stroke="#55b37a" stroke-width="5" stroke-linecap="round" stroke-linejoin="round"/>
</svg>
